<?xml version="1.0" encoding="utf-8"?>
<!-- Generator: Adobe Illustrator 26.5.0, SVG Export Plug-In . SVG Version: 6.00 Build 0)  -->
<svg version="1.1" id="Layer_1" xmlns="http://www.w3.org/2000/svg" xmlns:xlink="http://www.w3.org/1999/xlink" x="0px" y="0px"
	 viewBox="0 0 512 512" style="enable-background:new 0 0 512 512;" xml:space="preserve">
<style type="text/css">
	.st0{fill:#1A1918;}
	.st1{fill:#21609B;}
</style>
<g id="XMLID_1_">
	<path id="XMLID_4_" class="st0" d="M490.55,206.45l21.46,0.14c0,0-39.98,54.15-43.21,58.64c-1.12,1.4-2.67,2.95-3.51,4.91
		c-2.1,4.77-4.21,15.29-4.21,15.29l-19.64,0.14c0,0,3.09-10.94,2.95-16.83c-0.14-5.05-2.67-10.24-4.21-15.29
		c-1.54-5.19-3.51-15.29-3.51-15.29h20.2l2.81,11.22L490.55,206.45"/>
	<path id="XMLID_5_" class="st0" d="M449.87,217.81c3.93,2.38,6.45,15.57,6.45,15.57s-20.76,0.28-32.13,0.28h-9.82l-11.92,51.62
		h-18.1c0,0,11.22-56.11,13.89-66.21c0.84-3.23,5.89-2.67,14.45-2.67h13.61C435.14,216.27,445.52,215.15,449.87,217.81"/>
	<path id="XMLID_8_" class="st0" d="M365.42,242.93c0,0,0.56-3.37-1.96-7.15c-2.1-3.23-4.07-4.07-9.68-4.21
		c-15.71-0.56-15.43,11.22-15.43,11.22L365.42,242.93z M382.53,229.6c2.24,8.28-2.1,27.92-2.1,27.92s-23.01-0.42-35.63,0
		c-3.93,0.14-8.56-0.42-9.82,1.4c-1.68,2.53,0.56,6.45,2.53,8.14c2.24,1.96,6.45,2.1,8,2.38c10.24,1.26,31.56,0.28,31.56,0.28
		l-3.65,16.41c0,0-30.16,1.54-45.31-2.1c-2.95-0.7-5.75-2.1-7.72-4.21c-0.56-0.56-0.98-1.26-1.4-1.96c-0.42-0.56-1.54-2.24-2.1-3.65
		c-3.51-9.26,0.42-26.79,4.21-36.19c0.42-1.12,0.98-2.53,1.54-3.65c0.7-1.4,1.4-3.09,1.96-4.07c0.42-0.56,0.84-0.98,1.26-1.54
		c0.42-0.7,0.98-1.26,1.54-1.96c1.4-1.68,2.95-2.81,4.91-4.21c6.31-4.77,17.68-8.42,31.42-7.01c5.19,0.56,12.91,2.38,16.69,7.72
		C381.41,224.69,381.97,227.49,382.53,229.6z"/>
	<path id="XMLID_9_" class="st0" d="M299.34,216.27l17.54-0.14c0,0-9.82,46.43-14.73,69.16h-20.2c-14.17,0-26.65,1.68-32.13-8.42
		c-5.19-9.82-0.28-25.95,2.1-36.9c1.68-7.72,5.05-23.71,5.05-23.71l18.24-0.14c0,0-5.19,24.69-7.29,37.04
		c-0.7,4.49-2.38,8.56-0.7,11.92c1.54,3.09,3.79,3.37,10.52,3.51c2.1,0,9.12,0,9.12,0L299.34,216.27"/>
	<path id="XMLID_12_" class="st0" d="M216.99,249.8c1.82-6.59,4.49-13.61,4.21-19.5c-0.42-6.31-5.61-12.06-9.12-13.19
		c-10.24-3.65-19.92,1.4-23.71,5.61c-4.91,5.33-6.59,11.64-8.42,20.2c-1.26,6.45-2.38,13.19,0,18.1c4.21,8.84,17.26,6.87,31.42,7.01
		C213.49,262.29,215.31,255.97,216.99,249.8z M241.4,223.99c1.96,14.59-5.75,30.72-10.94,44.75c5.47,0.42,10.1-0.14,10.52,0.28
		c0.42,0.56-3.65,16.69-5.05,16.83c-4.35,0.14-18.52,0.28-24.41,0.28c-19.36,0-37.46,1.26-46.71-8.42
		c-3.79-3.93-6.31-10.66-7.01-15.29c-0.98-7.86,0.28-16.55,2.1-23.71c1.68-6.45,3.79-12.49,7.01-18.1
		c8.14-14.17,22.31-24.69,46.01-22.31c4.63,0.42,11.22,2.53,15.29,4.91c0.28,0.14,1.26,0.98,1.54,1.12
		C235.23,207.71,240.42,216.13,241.4,223.99z"/>
	<path id="XMLID_13_" class="st0" d="M155.69,216.41c-1.12,5.33-2.38,11.36-3.65,16.69h-19.5c1.54-5.89,2.67-11.64,4.21-16.69
		C143.06,216.27,148.96,216.41,155.69,216.41"/>
	<path id="XMLID_14_" class="st0" d="M131.98,237.88h18.8c-2.53,13.61-7.29,35.63-11.22,50.92c-2.38,9.54-3.93,16.55-10.52,21.6
		c-0.56,0.42-0.98,0.28-1.4,0.7c-1.26,1.12-6.73,2.53-9.82,2.81c-4.91,0.56-10.52,0-16.69,0c1.54-5.89,3.37-12.91,4.77-18.1
		c14.87,1.82,15.29-12.2,18.1-25.81C125.95,262.14,131,240.96,131.98,237.88"/>
	<path id="XMLID_15_" class="st1" d="M88.07,273.51l-0.42,0.98c-6.87,13.33-19.08,21.6-36.47,22.02c-8.14,0.14-15.85-1.96-20.9-4.21
		c-10.94-4.91-20.06-14.03-25.11-23.71c-7.15-13.89-8.42-33.25,6.45-47.84c0.28,0-1.82,3.09-1.54,3.09l-0.42,1.4
		c-10.8,33.67,22.45,62.57,54.71,59.34C72.08,283.75,81.9,279.54,88.07,273.51"/>
	<path id="XMLID_16_" class="st1" d="M68.43,259.48c8.14,0,16.55-3.79,21.6-9.12c-4.35,11.08-17.11,18.38-34.23,15.99
		c-14.31-1.96-27.92-16.27-29.32-30.72c-0.98-10.52,2.67-16.69,8.7-24.27c-2.1,3.93-2.81,7.01-3.09,8.98
		C29.99,243.07,50.34,259.34,68.43,259.48"/>
	<path id="XMLID_17_" class="st1" d="M89.34,231.28c-1.26,2.95-8.56,8.42-11.78,8.98c-12.77,2.67-20.9-3.37-25.11-10.24
		c-0.7-0.98-1.82-3.79-1.96-4.49c-1.68-5.61-0.84-14.17,4.07-18.52c-1.54,4.21-1.68,8.98-0.98,12.2c0.42,1.96,1.96,5.19,3.37,7.29
		c2.67,3.79,4.35,4.77,7.72,6.73c1.54,0.98,3.09,1.68,3.79,1.82C71.66,236.33,78.39,238.72,89.34,231.28"/>
</g>
</svg>
