<?xml version="1.0" encoding="utf-8"?>
<!-- Generator: Adobe Illustrator 24.1.1, SVG Export Plug-In . SVG Version: 6.00 Build 0)  -->
<svg version="1.1" id="Layer_1" xmlns="http://www.w3.org/2000/svg" xmlns:xlink="http://www.w3.org/1999/xlink" x="0px" y="0px"
	 viewBox="0 0 512 512" style="enable-background:new 0 0 512 512;" xml:space="preserve">
<style type="text/css">
	.st0{fill:url(#SVGID_1_);}
</style>
<g>
	
		<linearGradient id="SVGID_1_" gradientUnits="userSpaceOnUse" x1="0.4005" y1="511.7215" x2="2.4005" y2="511.7215" gradientTransform="matrix(263.1111 54.6133 -54.6133 94.72 27827.6211 -48292.1484)">
		<stop  offset="0" style="stop-color:#2298BD"/>
		<stop  offset="1" style="stop-color:#0ED7B5"/>
	</linearGradient>
	<path class="st0" d="M256,102.4c-68.3,0-110.9,34.1-128,102.4c25.6-34.1,55.5-46.9,89.6-38.4c19.5,4.9,33.4,19,48.8,34.6
		c25.1,25.5,54.1,55,117.6,55c68.3,0,110.9-34.1,128-102.4c-25.6,34.1-55.5,46.9-89.6,38.4c-19.5-4.9-33.4-19-48.8-34.6
		C348.5,131.9,319.4,102.4,256,102.4z M128,256C59.7,256,17.1,290.1,0,358.4c25.6-34.1,55.5-46.9,89.6-38.4
		c19.5,4.9,33.4,19,48.8,34.6c25.1,25.5,54.1,55,117.6,55c68.3,0,110.9-34.1,128-102.4c-25.6,34.1-55.5,46.9-89.6,38.4
		c-19.5-4.9-33.4-19-48.8-34.6C220.5,285.5,191.4,256,128,256z"/>
</g>
</svg>
